<svg xmlns="http://www.w3.org/2000/svg" viewBox="0 0 120 140">
  <path d="M20 74c0-30 20-56 40-56s40 26 40 56c0 16-8 34-20 44-6 6-12 10-20 12-8-2-14-6-20-12-12-10-20-28-20-44z" fill="var(--hair-base,#2b2b2b)"/>
  <path d="M88 84c12 8 16 22 10 36-4 8-12 14-22 18l-12-18" fill="var(--hair-base,#2b2b2b)"/>
  <path d="M86 88c8 10 8 22 2 30-6 6-12 8-18 10" fill="none" stroke="var(--hair-shadow,#1a1a1a)" stroke-width="6" stroke-linecap="round" opacity=".3"/>
  <path d="M28 70c8-18 18-30 32-30s24 12 32 30" fill="none" stroke="var(--hair-highlight,#4a4a4a)" stroke-width="4" stroke-linecap="round"/>
</svg>
