<svg xmlns="http://www.w3.org/2000/svg" viewBox="0 0 120 140">
  <g class="blush" fill="var(--cheek-blush,rgba(255,154,174,0.32))" opacity=".34">
    <ellipse cx="38" cy="84" rx="9" ry="4.8" />
    <ellipse cx="82" cy="84" rx="9" ry="4.8" />
  </g>
  <g class="brows" fill="none" stroke-linecap="round" stroke-linejoin="round">
    <path d="M34 42c5.8 4.6 16.4 4.6 22.8-.4" stroke="var(--brow-color,#1f2937)" stroke-width="3.6" />
    <path d="M62.6 41.6c6.4 5 17 5 23 0" stroke="var(--brow-color,#1f2937)" stroke-width="3.6" />
    <path d="M36.8 43.4c5 2.6 13 2.6 18-.2" stroke="var(--brow-highlight,rgba(255,255,255,0.2))" stroke-width="1.4" opacity=".4" />
    <path d="M64.8 43c5.4 2.6 13.6 2.6 18.4 0" stroke="var(--brow-highlight,rgba(255,255,255,0.2))" stroke-width="1.4" opacity=".4" />
  </g>
  <g class="eyes" fill="none" stroke-linecap="round" stroke-linejoin="round">
    <path d="M36 50q10 6 20 0" stroke="var(--skin-shadow,#d19a6c)" stroke-width="1.2" />
    <path d="M64 50q10 6 20 0" stroke="var(--skin-shadow,#d19a6c)" stroke-width="1.2" />
    <path d="M37 49c5.2-4 14.8-4 19 0" stroke="var(--lid-color,rgba(255,255,255,0.2))" stroke-width="4.6" opacity=".85" />
    <path d="M65 49c5.2-4 14.8-4 19 0" stroke="var(--lid-color,rgba(255,255,255,0.2))" stroke-width="4.6" opacity=".85" />
    <path d="M39 51.6c4 2.4 11 2.4 15 0" stroke="var(--lid-shadow,rgba(0,0,0,0.18))" stroke-width="1" opacity=".32" />
    <path d="M67 51.6c4 2.4 11 2.4 15 0" stroke="var(--lid-shadow,rgba(0,0,0,0.18))" stroke-width="1" opacity=".32" />
    <circle cx="44" cy="47.4" r="1.2" fill="var(--eye-highlight,#f5f9ff)" />
    <circle cx="76" cy="47.4" r="1.2" fill="var(--eye-highlight,#f5f9ff)" />
  </g>
  <g class="mouth" fill="none" stroke-linecap="round">
    <path d="M48 84h24" stroke="var(--mouth-color,#d45a60)" stroke-width="4" />
    <path d="M50 86h20" stroke="var(--mouth-soft,rgba(255,244,244,0.65))" stroke-width="2" opacity=".45" />
  </g>
</svg>
