<svg xmlns="http://www.w3.org/2000/svg" viewBox="0 0 120 140">
  <g class="blush" fill="var(--cheek-blush,rgba(255,154,174,0.32))" opacity=".26">
    <ellipse cx="37" cy="80" rx="9.2" ry="5.2" />
    <ellipse cx="83" cy="80" rx="9.2" ry="5.2" />
  </g>
  <g class="brows" fill="none" stroke-linecap="round" stroke-linejoin="round">
    <path d="M32 30c4.8-9.8 21.6-11.2 30-2.4" stroke="var(--brow-color,#1f2937)" stroke-width="4" />
    <path d="M58 28.2c6.8-8.6 23.6-7.4 30.6 2.6" stroke="var(--brow-color,#1f2937)" stroke-width="4" />
    <path d="M35.4 31.6c5.8-7 17.4-7 23.8-1" stroke="var(--brow-highlight,rgba(255,255,255,0.2))" stroke-width="1.6" opacity=".55" />
    <path d="M62.2 30.8c6-5.8 17.6-4.8 22.6 1.2" stroke="var(--brow-highlight,rgba(255,255,255,0.2))" stroke-width="1.6" opacity=".55" />
  </g>
  <g class="eyes">
    <g class="eye-left">
      <ellipse cx="46" cy="44.8" rx="9.8" ry="8.2" fill="var(--eye-white,#fff)" stroke="var(--skin-shadow,#d19a6c)" stroke-width="1.5" />
      <ellipse cx="46" cy="44.6" rx="4.4" ry="4.2" fill="var(--eye-base,#274472)" />
      <circle cx="46" cy="44.6" r="2.1" fill="var(--eye-shadow,#13294b)" />
      <circle cx="44" cy="42.6" r="1.2" fill="var(--eye-highlight,#f5f9ff)" />
      <path d="M36.8 43c4.8-6.4 15.8-6.4 18.8-.2l-1.2 1.4c-3.6-4-11-4-15.4 0z" fill="var(--lid-color,rgba(255,255,255,0.2))" opacity=".5" />
      <path d="M38.4 51.4c4.4 3.8 11.2 3.8 15.6 0l1.4 1.4c-4.8 4.6-14.4 4.6-18.4 0z" fill="var(--lid-color,rgba(255,255,255,0.2))" opacity=".28" />
    </g>
    <g class="eye-right">
      <ellipse cx="74" cy="44.8" rx="9.8" ry="8.2" fill="var(--eye-white,#fff)" stroke="var(--skin-shadow,#d19a6c)" stroke-width="1.5" />
      <ellipse cx="74" cy="44.6" rx="4.4" ry="4.2" fill="var(--eye-base,#274472)" />
      <circle cx="74" cy="44.6" r="2.1" fill="var(--eye-shadow,#13294b)" />
      <circle cx="72" cy="42.6" r="1.2" fill="var(--eye-highlight,#f5f9ff)" />
      <path d="M64.8 43c4.8-6.4 15.8-6.4 18.8-.2l-1.2 1.4c-3.6-4-11-4-15.4 0z" fill="var(--lid-color,rgba(255,255,255,0.2))" opacity=".5" />
      <path d="M66.4 51.4c4.4 3.8 11.2 3.8 15.6 0l1.4 1.4c-4.8 4.6-14.4 4.6-18.4 0z" fill="var(--lid-color,rgba(255,255,255,0.2))" opacity=".28" />
    </g>
  </g>
  <g class="mouth" stroke-linecap="round" stroke-linejoin="round">
    <ellipse cx="60" cy="82" rx="11" ry="12" fill="none" stroke="var(--mouth-color,#d45a60)" stroke-width="4.6" />
    <ellipse cx="60" cy="83" rx="6.2" ry="7" fill="var(--mouth-color,#d45a60)" opacity=".18" />
    <path d="M54.8 88.4c3.4 3.6 6.6 3.6 10.4 0" fill="none" stroke="var(--mouth-soft,rgba(255,244,244,0.65))" stroke-width="2" opacity=".55" />
  </g>
</svg>
